<svg width="111" height="32" viewBox="0 0 111 32" fill="none" xmlns="http://www.w3.org/2000/svg">
<path d="M3 24C2.616 24 2.256 23.92 1.92 23.76C1.6 23.584 1.44 23.328 1.44 22.992V8.016C1.44 7.44 1.6 7.04 1.92 6.816C2.256 6.576 2.616 6.456 3 6.456C3.384 6.456 3.704 6.496 3.96 6.576C4.232 6.656 4.48 6.816 4.704 7.056C4.944 7.296 5.192 7.648 5.448 8.112L8.4 13.488L11.328 8.112C11.616 7.648 11.864 7.296 12.072 7.056C12.296 6.816 12.544 6.656 12.816 6.576C13.088 6.496 13.408 6.456 13.776 6.456C14.176 6.456 14.536 6.576 14.856 6.816C15.176 7.04 15.336 7.44 15.336 8.016V22.992C15.336 23.328 15.168 23.584 14.832 23.76C14.512 23.92 14.16 24 13.776 24C13.392 24 13.032 23.92 12.696 23.76C12.376 23.584 12.216 23.328 12.216 22.992V12.696L9.432 17.688C9.288 17.912 9.12 18.08 8.928 18.192C8.736 18.288 8.544 18.336 8.352 18.336C8.176 18.336 7.992 18.288 7.8 18.192C7.624 18.096 7.464 17.928 7.32 17.688L4.56 12.528V22.992C4.56 23.328 4.4 23.584 4.08 23.76C3.76 23.92 3.4 24 3 24ZM18.3173 29.304C17.9173 29.304 17.5813 29.224 17.3093 29.064C17.0373 28.92 16.9013 28.56 16.9013 27.984C16.9013 27.632 16.9573 27.328 17.0693 27.072C17.1973 26.816 17.4053 26.688 17.6933 26.688C17.9653 26.688 18.2773 26.64 18.6293 26.544C18.9973 26.448 19.3653 26.264 19.7333 25.992C20.1013 25.736 20.4133 25.376 20.6693 24.912C20.9253 24.464 21.0773 23.88 21.1253 23.16L16.9973 14.328C16.9333 14.184 16.9013 14.048 16.9013 13.92C16.9013 13.648 17.0133 13.4 17.2373 13.176C17.4773 12.952 17.7573 12.776 18.0773 12.648C18.3973 12.504 18.6933 12.432 18.9653 12.432C19.1573 12.432 19.3333 12.472 19.4933 12.552C19.6693 12.632 19.7893 12.768 19.8533 12.96L22.7333 20.136L25.0373 12.96C25.1173 12.768 25.2373 12.632 25.3973 12.552C25.5573 12.472 25.7173 12.432 25.8773 12.432C26.1173 12.432 26.4053 12.504 26.7413 12.648C27.0773 12.776 27.3653 12.96 27.6053 13.2C27.8613 13.424 27.9893 13.68 27.9893 13.968C27.9893 14.112 27.9653 14.232 27.9173 14.328L24.4133 23.28C24.1253 24 23.8453 24.712 23.5733 25.416C23.3013 26.136 22.9573 26.784 22.5413 27.36C22.1413 27.952 21.6053 28.424 20.9333 28.776C20.2613 29.128 19.3893 29.304 18.3173 29.304Z" fill="black"/>
<path d="M31 14C31 7.37258 36.3726 2 43 2H99C105.627 2 111 7.37258 111 14V20C111 26.6274 105.627 32 99 32H43C36.3726 32 31 26.6274 31 20V14Z" fill="url(#paint0_linear_6_42)"/>
<path d="M49.864 26.144C48.824 26.144 47.864 25.96 46.984 25.592C46.104 25.224 45.4 24.624 44.872 23.792C44.36 22.96 44.104 21.856 44.104 20.48V14.12C44.104 12.744 44.36 11.64 44.872 10.808C45.4 9.976 46.104 9.376 46.984 9.008C47.864 8.64 48.824 8.456 49.864 8.456C51.016 8.456 52.04 8.648 52.936 9.032C53.848 9.4 54.568 9.936 55.096 10.64C55.624 11.344 55.888 12.208 55.888 13.232C55.888 13.952 55.736 14.432 55.432 14.672C55.128 14.896 54.656 15.008 54.016 15.008C53.52 15.008 53.088 14.928 52.72 14.768C52.368 14.608 52.176 14.312 52.144 13.88C52.144 13.72 52.12 13.52 52.072 13.28C52.04 13.04 51.96 12.8 51.832 12.56C51.704 12.32 51.496 12.12 51.208 11.96C50.92 11.8 50.52 11.72 50.008 11.72C49.32 11.72 48.784 11.92 48.4 12.32C48.032 12.704 47.848 13.304 47.848 14.12V20.48C47.848 21.296 48.04 21.904 48.424 22.304C48.808 22.688 49.344 22.88 50.032 22.88C50.512 22.88 50.888 22.8 51.16 22.64C51.448 22.48 51.656 22.28 51.784 22.04C51.912 21.784 52 21.52 52.048 21.248C52.096 20.976 52.128 20.72 52.144 20.48C52.176 20.032 52.368 19.736 52.72 19.592C53.088 19.432 53.512 19.352 53.992 19.352C54.648 19.352 55.128 19.472 55.432 19.712C55.736 19.936 55.888 20.408 55.888 21.128C55.888 22.184 55.624 23.088 55.096 23.84C54.568 24.592 53.848 25.168 52.936 25.568C52.04 25.952 51.016 26.144 49.864 26.144ZM59.9806 26.24C59.1486 26.24 58.4286 25.984 57.8206 25.472C57.2126 24.944 56.9086 24.136 56.9086 23.048C56.9086 22.104 57.1486 21.368 57.6286 20.84C58.1086 20.312 58.7646 19.944 59.5966 19.736C60.4446 19.528 61.4206 19.424 62.5246 19.424H63.3886V19.184C63.3886 18.912 63.3326 18.64 63.2206 18.368C63.1086 18.096 62.9246 17.872 62.6686 17.696C62.4126 17.504 62.0526 17.408 61.5886 17.408C60.9326 17.408 60.4446 17.472 60.1246 17.6C59.8046 17.728 59.5566 17.864 59.3806 18.008C59.2046 18.136 59.0046 18.2 58.7806 18.2C58.3806 18.2 58.0686 18 57.8446 17.6C57.6366 17.2 57.5326 16.784 57.5326 16.352C57.5326 15.968 57.7486 15.632 58.1806 15.344C58.6286 15.056 59.1646 14.832 59.7886 14.672C60.4286 14.512 61.0446 14.432 61.6366 14.432C62.9486 14.432 64.0046 14.656 64.8046 15.104C65.6046 15.552 66.1886 16.136 66.5566 16.856C66.9246 17.56 67.1086 18.32 67.1086 19.136V24.848C67.1086 25.168 66.9326 25.44 66.5806 25.664C66.2446 25.888 65.8126 26 65.2846 26C64.8206 26 64.4286 25.888 64.1086 25.664C63.7886 25.44 63.6286 25.168 63.6286 24.848V24.32C63.1966 24.816 62.6926 25.264 62.1166 25.664C61.5406 26.048 60.8286 26.24 59.9806 26.24ZM61.5886 23.528C61.8446 23.528 62.1086 23.432 62.3806 23.24C62.6526 23.032 62.8846 22.76 63.0766 22.424C63.2846 22.088 63.3886 21.72 63.3886 21.32V21.224H63.2926C62.8446 21.224 62.4126 21.256 61.9966 21.32C61.5966 21.368 61.2686 21.488 61.0126 21.68C60.7726 21.856 60.6526 22.136 60.6526 22.52C60.6526 22.872 60.7406 23.128 60.9166 23.288C61.0926 23.448 61.3166 23.528 61.5886 23.528ZM74.8216 27.248C74.5656 27.248 74.3496 27.176 74.1736 27.032C73.9976 26.904 73.9096 26.76 73.9096 26.6V26C72.9496 25.968 72.0696 25.8 71.2696 25.496C70.4856 25.192 69.8536 24.808 69.3736 24.344C68.9096 23.88 68.6776 23.392 68.6776 22.88C68.6776 22.608 68.7496 22.32 68.8936 22.016C69.0376 21.696 69.2296 21.424 69.4696 21.2C69.7256 20.976 70.0056 20.864 70.3096 20.864C70.5656 20.864 70.8136 20.936 71.0536 21.08C71.2936 21.224 71.5496 21.4 71.8216 21.608C72.0936 21.816 72.3976 22.016 72.7336 22.208C73.0696 22.384 73.4616 22.512 73.9096 22.592V18.704C73.3656 18.496 72.8056 18.264 72.2296 18.008C71.6696 17.752 71.1496 17.44 70.6696 17.072C70.2056 16.704 69.8296 16.256 69.5416 15.728C69.2536 15.184 69.1096 14.528 69.1096 13.76C69.1096 12.992 69.2376 12.328 69.4936 11.768C69.7496 11.192 70.1016 10.712 70.5496 10.328C70.9976 9.928 71.5096 9.616 72.0856 9.392C72.6616 9.152 73.2696 8.984 73.9096 8.888V8.216C73.9096 8.04 73.9976 7.888 74.1736 7.76C74.3496 7.632 74.5656 7.568 74.8216 7.568C75.0456 7.568 75.2536 7.632 75.4456 7.76C75.6376 7.888 75.7336 8.04 75.7336 8.216V8.816C76.1016 8.832 76.5256 8.872 77.0056 8.936C77.5016 9 77.9736 9.112 78.4216 9.272C78.8856 9.416 79.2696 9.624 79.5736 9.896C79.8776 10.152 80.0296 10.488 80.0296 10.904C80.0296 11.112 79.9736 11.376 79.8616 11.696C79.7656 12 79.6056 12.272 79.3816 12.512C79.1736 12.752 78.8936 12.872 78.5416 12.872C78.2856 12.872 78.0376 12.808 77.7976 12.68C77.5736 12.552 77.3016 12.416 76.9816 12.272C76.6776 12.112 76.2616 12.016 75.7336 11.984V15.488C76.2776 15.696 76.8296 15.936 77.3896 16.208C77.9496 16.464 78.4616 16.784 78.9256 17.168C79.3896 17.552 79.7576 18.032 80.0296 18.608C80.3176 19.168 80.4616 19.856 80.4616 20.672C80.4616 22.16 80.0216 23.352 79.1416 24.248C78.2776 25.128 77.1416 25.68 75.7336 25.904V26.6C75.7336 26.76 75.6376 26.904 75.4456 27.032C75.2536 27.176 75.0456 27.248 74.8216 27.248ZM75.4936 22.568C75.9096 22.472 76.2536 22.304 76.5256 22.064C76.8136 21.824 76.9576 21.488 76.9576 21.056C76.9576 20.784 76.8936 20.552 76.7656 20.36C76.6536 20.152 76.4856 19.968 76.2616 19.808C76.0376 19.632 75.7816 19.48 75.4936 19.352V22.568ZM74.1496 14.912V12.056C73.7976 12.12 73.5016 12.224 73.2616 12.368C73.0376 12.512 72.8696 12.672 72.7576 12.848C72.6616 13.024 72.6136 13.208 72.6136 13.4C72.6136 13.624 72.6776 13.832 72.8056 14.024C72.9336 14.2 73.1096 14.36 73.3336 14.504C73.5736 14.648 73.8456 14.784 74.1496 14.912ZM84.0379 26C83.4939 26 83.0459 25.88 82.6939 25.64C82.3579 25.4 82.1899 25.136 82.1899 24.848V9.176C82.1899 8.84 82.3579 8.568 82.6939 8.36C83.0459 8.152 83.4939 8.048 84.0379 8.048C84.5499 8.048 84.9899 8.152 85.3579 8.36C85.7259 8.568 85.9099 8.84 85.9099 9.176V16.256C86.1339 15.792 86.5019 15.376 87.0139 15.008C87.5259 14.624 88.1499 14.432 88.8859 14.432C89.6219 14.432 90.2939 14.664 90.9019 15.128C91.5259 15.576 92.0219 16.184 92.3899 16.952C92.7739 17.704 92.9659 18.544 92.9659 19.472V24.848C92.9659 25.232 92.7659 25.52 92.3659 25.712C91.9819 25.904 91.5579 26 91.0939 26C90.6619 26 90.2459 25.904 89.8459 25.712C89.4459 25.52 89.2459 25.232 89.2459 24.848V19.472C89.2459 19.168 89.1659 18.88 89.0059 18.608C88.8459 18.336 88.6379 18.112 88.3819 17.936C88.1259 17.76 87.8379 17.672 87.5179 17.672C87.2619 17.672 87.0059 17.744 86.7499 17.888C86.5099 18.032 86.3099 18.24 86.1499 18.512C85.9899 18.768 85.9099 19.088 85.9099 19.472V24.848C85.9099 25.136 85.7259 25.4 85.3579 25.64C84.9899 25.88 84.5499 26 84.0379 26Z" fill="white"/>
<path d="M96.3297 26.144C95.8017 26.144 95.3617 25.96 95.0097 25.592C94.6577 25.224 94.4817 24.792 94.4817 24.296C94.4817 23.784 94.6577 23.352 95.0097 23C95.3617 22.632 95.8017 22.448 96.3297 22.448C96.8257 22.448 97.2497 22.632 97.6017 23C97.9697 23.352 98.1537 23.784 98.1537 24.296C98.1537 24.792 97.9697 25.224 97.6017 25.592C97.2497 25.96 96.8257 26.144 96.3297 26.144Z" fill="#56CCF2"/>
<defs>
<linearGradient id="paint0_linear_6_42" x1="71" y1="2" x2="71" y2="32" gradientUnits="userSpaceOnUse">
<stop stop-color="#428AF8"/>
<stop offset="1" stop-color="#489FF6"/>
</linearGradient>
</defs>
</svg>
